<svg width="1415" height="765" viewBox="0 0 1415 765" fill="none" xmlns="http://www.w3.org/2000/svg">
<path d="M-250.833 67.5652C-271.75 26.2165 -185.47 14.092 -43.7087 15.2911C-36.0232 6.016 -31.5949 0 -31.5949 0L-34.5309 15.3862C293.954 19.4028 904.943 90.8748 1186 41.5C1593 -30 1317 434.5 1389.69 518.573C1462.38 602.646 1328.39 784.559 1022.69 763.073C716.985 741.587 337.66 462.466 153.033 620.983C-31.5949 779.5 -146.033 599.704 -146.033 599.704L-34.5309 15.3862C-37.6153 15.3485 -40.6747 15.3167 -43.7087 15.2911C-80.7824 60.0329 -193.648 180.613 -250.833 67.5652Z" fill="#FFF2B3" fill-opacity="0.8"/>
</svg>
